<?xml version="1.0" encoding="utf-8"?>
<!DOCTYPE svg PUBLIC "-//W3C//DTD SVG 1.1//EN" "http://www.w3.org/Graphics/SVG/1.1/DTD/svg11.dtd">
<svg version="1.1" xmlns="http://www.w3.org/2000/svg" xmlns:xlink="http://www.w3.org/1999/xlink" x="0px" y="0px" viewBox="0 0 1000 1000" enable-background="new 0 0 1000 1000" xml:space="preserve">
  <path d="M260.9 622.4h59.4c5.5 0 10-4.5 10-10v-53.6c0-5.5-4.5-10-10-10h-59.4c-5.5 0-10 4.5-10 10v53.6c0 5.6 4.5 10 10 10zM261.4 775.2h58.8c5.5 0 10-4.5 10-10v-59.4c0-5.5-4.5-10-10-10H261c-5.5 0-10 4.5-10 10l0.5 59.4c0 5.6 4.5 10 9.9 10zM772.6 612.5v-53.6c0-5.5-4.5-10-10-10h-54.2c-5.5 0-10 4.5-10 10l0.5 53.6c0 5.5 4.5 9.9 10 9.9h53.7c5.6 0 10-4.4 10-9.9zM624.9 612.5v-53.6c0-5.5-4.5-10-10-10h-54.2c-5.5 0-10 4.5-10 10l0.5 53.6c0 5.5 4.5 9.9 10 9.9H615c5.5 0 9.9-4.4 9.9-9.9zM959.3 252.8c-1.1-61.4-51.7-110.4-113.2-109.3H734.9v-42.2c-2.2-16.6-15.3-29.7-31.9-31.9-20.3-2.7-38.9 11.6-41.6 31.9v42.2H367.3v-42.2-2.6c-0.7-19.7-17.3-35.2-37.1-34.5-21.1 0-42.2 16-37.1 37.1v42.2H174.2c-61.4 0.7-110.7 51.1-109.9 112.5v592.7c2.4 61.1 52.1 109.6 113.2 110.6H854c59-0.7 106.2-49.1 105.5-108.1V256.1c-0.2-1.1-0.2-2.2-0.2-3.3z m-781.9-33.9h115.7V256c0.7 19.8 17.3 35.2 37.1 34.5 20.6-3.8 36-21.3 37.1-42.2v-29.4h294.1V256c0.7 19.8 17.3 35.2 37.1 34.5h-0.6c21.6-2 37.9-20.5 37.1-42.2V219h113.8c19.8 0.7 35.2 17.3 34.5 37.1v108.7h-743V246.5c0.7-19.8 17.3-28.3 37.1-27.6z m705.8 628c-0.7 19.8-17.3 35.2-37.1 34.5H174.8c-19.8-0.7-35.2-17.3-34.5-37.1v-406h742.9v406c0.1 0.8 0.1 1.7 0 2.6zM414.2 775.2h53.1c5.5 0 10-4.5 10-10v-59.4c0-5.5-4.5-10-10-10h-53.5c-5.5 0-10 4.5-10 10l0.5 59.4c0 5.6 4.5 10 9.9 10zM709.5 775.2h53.8c5.5 0 10-4.5 10-10v-59.4c0-5.5-4.5-10-10-10h-54.7c-5.6 0-10 4.6-10 10.1l1 59.4c0.1 5.6 4.5 9.9 9.9 9.9zM413.7 622.4h53.6c5.5 0 10-4.5 10-10v-53.6c0-5.5-4.5-10-10-10h-53.6c-5.5 0-10 4.5-10 10v53.6c0 5.6 4.5 10 10 10zM561.9 775.2H615c5.5 0 10-4.5 10-10v-59.4c0-5.5-4.5-10-10-10h-54.1c-5.6 0-10 4.6-10 10.1l1 59.4c0.1 5.6 4.5 9.9 10 9.9z"></path>
</svg>
