<?xml version="1.0" encoding="utf-8"?>
<!-- Svg Vector Icons : http://www.sfont.cn -->
<!DOCTYPE svg PUBLIC "-//W3C//DTD SVG 1.1//EN" "http://www.w3.org/Graphics/SVG/1.1/DTD/svg11.dtd">
<svg version="1.1" xmlns="http://www.w3.org/2000/svg" xmlns:xlink="http://www.w3.org/1999/xlink" x="0px" y="0px" viewBox="0 0 1000 1000" enable-background="new 0 0 1000 1000" xml:space="preserve">
<metadata> Svg Vector Icons : http://www.sfont.cn </metadata>
<g><path d="M153.5,153.5c-191.4,191.4-191.4,501.6,0,693c191.4,191.4,501.6,191.4,693,0c191.4-191.4,191.4-501.6,0-693C655.1-37.8,344.9-37.8,153.5,153.5z M757.3,286.9L548.1,496.1l209.2,209.2c8.8,8.8,11.8,19.9,6.9,24.8l-26.3,26.3c-4.9,4.9-16,1.8-24.8-6.9L503.9,540.3L294.7,749.4c-8.8,8.8-19.9,11.8-24.8,6.9l-26.3-26.3c-4.9-4.9-1.8-16,6.9-24.8l209.2-209.2L250.6,286.9c-8.8-8.8-11.8-19.9-6.9-24.8l26.3-26.3c4.9-4.9,16-1.8,24.8,6.9l209.2,209.2l209.2-209.2c8.8-8.8,19.9-11.8,24.8-6.9l26.3,26.3C769.1,267.1,766,278.2,757.3,286.9z"/></g>
</svg>