<?xml version="1.0" standalone="no"?>
<!DOCTYPE svg PUBLIC "-//W3C//DTD SVG 1.1//EN" "http://www.w3.org/Graphics/SVG/1.1/DTD/svg11.dtd">
<svg viewBox="0 0 1024 1024" version="1.1" xmlns="http://www.w3.org/2000/svg" xmlns:xlink="http://www.w3.org/1999/xlink" width="200" height="200">
  <path d="M512 1024A512 512 0 1 1 512 0a512 512 0 0 1 0 1024z m-32.128-192.384c41.152 0 74.56-30.528 74.56-68.16s-33.408-68.16-74.56-68.16-74.56 30.528-74.56 68.16 33.344 68.16 74.56 68.16z m0-639.232c-123.52 0-223.68 91.584-223.68 204.48H368c0-56.448 50.048-102.272 111.808-102.272 61.76 0 111.808 45.76 111.808 102.272 0 38.848-23.744 72.64-58.624 89.984a224.256 224.256 0 0 0-43.136 30.784l-1.152 1.024a169.152 169.152 0 0 0-6.016 5.76l-1.216 1.216-1.6 1.6v0.128a201.664 201.664 0 0 0-44.352 70.016 190.08 190.08 0 0 0-10.56 52.992h-1.024l-0.128 12.288c0-4.16 0.832-8.128 1.088-12.288h110.848l-0.064 12.288c0-38.848 23.68-72.64 58.56-89.92 19.968-10.88 37.952-24.576 53.248-40.448v-0.064a194.048 194.048 0 0 0 56-135.296c0.064-112.96-100.096-204.544-223.616-204.544z"></path>
</svg>
