<?xml version="1.0" encoding="utf-8"?>
<!DOCTYPE svg PUBLIC "-//W3C//DTD SVG 1.1//EN" "http://www.w3.org/Graphics/SVG/1.1/DTD/svg11.dtd">
<svg version="1.1" xmlns="http://www.w3.org/2000/svg" xmlns:xlink="http://www.w3.org/1999/xlink" x="0px" y="0px" viewBox="0 0 1000 1000" enable-background="new 0 0 1000 1000" xml:space="preserve">
<g><path d="M576 256 96 256C76.8 256 64 243.2 64 224s12.8-32 32-32l480 0c19.2 0 32 12.8 32 32S595.2 256 576 256zM576 544 96 544c-19.2 0-32-12.8-32-32s12.8-32 32-32l480 0c19.2 0 32 12.8 32 32S595.2 544 576 544zM928 832 96 832c-19.2 0-32-12.8-32-32s12.8-32 32-32l832 0c19.2 0 32 12.8 32 32S947.2 832 928 832zM768 544c-9.6 0-16-3.2-22.4-9.6-12.8-12.8-9.6-32 3.2-44.8l134.4-121.6-134.4-121.6c-12.8-12.8-12.8-32-3.2-44.8 12.8-12.8 32-12.8 44.8-3.2l160 144c6.4 6.4 9.6 16 9.6 22.4s-3.2 19.2-9.6 22.4l-160 144C784 540.8 774.4 544 768 544z" p-id="4584"></path></g>
</svg>
