<?xml version="1.0" encoding="utf-8"?>
<svg version="1.1" xmlns="http://www.w3.org/2000/svg" xmlns:xlink="http://www.w3.org/1999/xlink" x="0px"
	 y="0px" viewBox="0 0 1024 1024" style="enable-background:new 0 0 1024 1024;" xml:space="preserve">
  <g>
    <path id="XMLID_922_" d="M508.641,731.354c6.281,0,12.562-2.281,17.5-6.906l206.781-193.781
        c5.156-4.844,8.094-11.625,8.094-18.688c0-7.094-2.938-13.844-8.094-18.688l-206.781-193.75
        c-10.281-9.625-26.531-9.125-36.187,1.188s-9.125,26.5,1.188,36.188l186.844,175.062L491.141,687.073
        c-10.312,9.688-10.844,25.875-1.188,36.188C495.016,728.636,501.829,731.354,508.641,731.354z"/>
      <path id="XMLID_924_" d="M308.58,731.354c6.281,0,12.562-2.281,17.5-6.906l206.781-193.781c5.156-4.844,8.094-11.625,8.094-18.688
        c0-7.094-2.938-13.844-8.094-18.688L326.08,299.542c-10.281-9.625-26.531-9.125-36.188,1.188s-9.125,26.5,1.188,36.188
        l186.844,175.062L291.08,687.073c-10.312,9.688-10.844,25.875-1.188,36.188C294.955,728.636,301.767,731.354,308.58,731.354z"/>
  </g>
</svg>
