<?xml version="1.0" encoding="utf-8"?>
<!-- Svg Vector Icons : http://www.sfont.cn -->
<!DOCTYPE svg PUBLIC "-//W3C//DTD SVG 1.1//EN" "http://www.w3.org/Graphics/SVG/1.1/DTD/svg11.dtd">
<svg version="1.1" xmlns="http://www.w3.org/2000/svg" xmlns:xlink="http://www.w3.org/1999/xlink" x="0px" y="0px" viewBox="0 0 1000 1000" enable-background="new 0 0 1000 1000" xml:space="preserve">
  <path d="M682.666667 981.290667H341.333333a42.666667 42.666667 0 0 1-42.666666-42.666667 42.666667 42.666667 0 0 1 42.666666-42.666667h128v-85.333333H128a85.333333 85.333333 0 0 1-85.333333-85.333333v-85.333334h938.666666v85.333334a85.333333 85.333333 0 0 1-85.333333 85.333333h-341.333333v85.333333h128a42.666667 42.666667 0 0 1 42.666666 42.666667 42.666667 42.666667 0 0 1-42.666666 42.666667z m-170.666667-298.666667a42.666667 42.666667 0 0 0-42.666667 42.666667 42.666667 42.666667 0 0 0 42.666667 42.666666 42.666667 42.666667 0 0 0 42.666667-42.666666 42.666667 42.666667 0 0 0-42.666667-42.666667z" p-id="1955"></path>
  <path d="M128 42.666667h768a85.333333 85.333333 0 0 1 85.333333 85.333333v448H42.666667V128a85.333333 85.333333 0 0 1 85.333333-85.333333z" p-id="1956"></path>
</svg>
