<svg viewBox="0 0 1024 1024" version="1.1" xmlns="http://www.w3.org/2000/svg">
  <path
    d="M810.666667 426.666667c0 23.466667-19.2 42.666667-42.666667 42.666667L554.666667 469.333333l0 170.666667 213.333333 0c23.466667 0 42.666667 19.2 42.666667 42.666667 0 23.466667-19.2 42.666667-42.666667 42.666667L554.666667 725.333333l0 192c0 23.466667-19.2 42.666667-42.666667 42.666667s-42.666667-19.2-42.666667-42.666667l0-192L256 725.333333c-23.466667 0-42.666667-19.2-42.666667-42.666667 0-23.466667 19.2-42.666667 42.666667-42.666667l213.333333 0 0-170.666667L256 469.333333c-23.466667 0-42.666667-19.2-42.666667-42.666667 0-23.466667 19.2-42.666667 42.666667-42.666667l217.6 0L226.133333 136.533333l0 0C217.6 130.133333 213.333333 119.466667 213.333333 106.666667c0-23.466667 19.2-42.666667 42.666667-42.666667 12.8 0 23.466667 4.266667 29.866667 12.8l0 0L512 302.933333 738.133333 76.8l0 0C744.533333 68.266667 755.2 64 768 64c23.466667 0 42.666667 19.2 42.666667 42.666667 0 12.8-4.266667 23.466667-12.8 29.866667l0 0L550.4 384 768 384C791.466667 384 810.666667 403.2 810.666667 426.666667z"></path>
</svg>
