<svg viewBox="0 0 1102 1024" version="1.1" xmlns="http://www.w3.org/2000/svg"><path d="M2.205517 455.488543c5.907636-65.771675 23.669926-128.74707 52.735493-187.193277A494.429707 494.429707 0 0 1 170.533745 116.744724 464.025077 464.025077 0 0 1 338.901357 21.356102a456.817761 456.817761 0 0 1 289.867982 4.607956 485.607638 485.607638 0 0 1 136.033153 73.80606c42.062365 32.295074 78.807858 71.167316 109.251873 115.435197a542.714782 542.714782 0 0 1 94.049557 298.296209l70.103941-72.427611a38.045173 38.045173 0 0 1 27.490198-11.815271c9.964212 0 19.298276 3.938424 26.269285 11.145739 14.650936 15.123547 14.335862 40.014384-0.669532 55.531773l-138.632513 143.240469a38.045173 38.045173 0 0 1-27.490197 11.815271 36.233498 36.233498 0 0 1-26.229902-11.145739 37.808867 37.808867 0 0 1-7.325468-10.751896l-126.265862-130.440592c-14.611552-15.123547-14.335862-40.053769 0.669532-55.531774a38.045173 38.045173 0 0 1 27.490197-11.854655c9.964212 0 19.298276 3.938424 26.269286 11.145739l71.364237 73.727291a458.078057 458.078057 0 0 0-79.398622-254.107095 428.776185 428.776185 0 0 0-92.040961-97.357833 408.768993 408.768993 0 0 0-114.489976-62.148326 383.208623 383.208623 0 0 0-243.433967-3.938424 389.352564 389.352564 0 0 0-141.389409 80.146922 415.779387 415.779387 0 0 0-97.200297 127.526159c-24.418227 49.230296-39.384237 102.280863-44.34665 157.694483a455.045471 455.045471 0 0 0 17.092759 170.651898 449.92552 449.92552 0 0 0 60.454803 127.368621c25.639138 37.336256 56.634532 70.103941 92.040961 97.357833 35.051971 26.938818 73.569754 47.851848 114.52936 62.148326a383.208623 383.208623 0 0 0 243.433967 3.938424 389.510101 389.510101 0 0 0 166.004558-103.816848 37.060567 37.060567 0 0 1 27.017586-11.697119c10.358054 0 20.125345 4.253498 27.490198 12.012193 15.005394 15.753695 15.084163 41.353449 0.196921 56.949606a470.641628 470.641628 0 0 1-197.866405 123.784656 456.817761 456.817761 0 0 1-289.867982-4.607956 485.647023 485.647023 0 0 1-136.033154-73.80606c-42.062365-32.295074-78.768473-71.167316-109.251873-115.435197a532.789954 532.789954 0 0 1-71.67931-150.95978c-19.573966-66.165518-26.387439-134.300247-20.204114-202.356208z" p-id="1193"></path></svg>
