<svg viewBox="0 0 1102 1024" version="1.1" xmlns="http://www.w3.org/2000/svg"><path d="M1091.35696766 440.62153453a517.09902792 517.09902792 0 0 0-51.91150093-184.26838205 486.70424283 486.70424283 0 0 0-113.78659851-149.18256478A456.77468517 456.77468517 0 0 0 759.92200114 13.27241292a449.67998348 449.67998348 0 0 0-285.33879478 4.53595668A478.02001866 478.02001866 0 0 0 340.63680177 90.46120992c-41.40514055 31.79046347-77.57648522 70.05532669-107.54481249 113.63152204a534.23486353 534.23486353 0 0 0-92.58003267 293.63533074L71.54215831 426.47090174a37.45071717 37.45071717 0 0 0-27.06066267-11.63065739 35.66734959 35.66734959 0 0 0-25.85882841 10.97158683c-14.42201512 14.88724158-14.11186416 39.38915925 0.65907057 54.66409003l136.46637998 141.00233667c7.24977619 7.52115853 16.86445327 11.63065739 27.06066267 11.6306574 9.80852119 0 18.99674044-3.87688612 25.82005978-10.97158683a37.21810345 37.21810345 0 0 0 7.21100757-10.58389861l124.29295889-128.40245775c14.3832465-14.88724158 14.11186416-39.42792886-0.65907056-54.66409003a37.45071717 37.45071717 0 0 0-27.06066366-11.66942602 35.66734959 35.66734959 0 0 0-25.85882742 10.97158683l-70.2491708 72.57530208A450.92058736 450.92058736 0 0 1 294.50186042 250.18890468 422.07655711 422.07655711 0 0 1 385.06591278 154.31351821a402.38197748 402.38197748 0 0 1 112.70107013-61.17725742 377.22098827 377.22098827 0 0 1 239.63031126-3.87688612 383.26893019 383.26893019 0 0 1 139.18020047 78.89462634 409.28283408 409.28283408 0 0 1 95.68154138 125.53356178c24.0366922 48.46107262 38.7688583 100.68272452 43.65373359 155.23050769a447.93538552 447.93538552 0 0 1-16.82568366 167.98546209 442.89543375 442.89543375 0 0 1-59.51019768 125.3784863 422.07655711 422.07655711 0 0 1-90.60282099 95.83661686 402.38197748 402.38197748 0 0 1-112.73983875 61.1772584 377.22098827 377.22098827 0 0 1-239.63031126 3.87688515 383.42400567 383.42400567 0 0 1-163.41073679-102.19470975 36.48149564 36.48149564 0 0 0-26.59543621-11.51435054 37.1405662 37.1405662 0 0 0-27.06066268 11.8245015 41.09498958 41.09498958 0 0 0-0.19384411 56.05976939 463.28785256 463.28785256 0 0 0 194.77474243 121.85051977 449.67998348 449.67998348 0 0 0 285.33879478-4.5359557 478.05878827 478.05878827 0 0 0 133.90763498-72.65284032c41.40514055-31.79046347 77.53771561-70.05532669 107.54481249-113.63152303a524.46511097 524.46511097 0 0 0 70.55932176-148.60103245c19.26812278-65.13168178 25.97513527-132.20180564 19.88842374-199.19439225z" p-id="1055"></path></svg>
