<svg viewBox="0 0 1024 1024" version="1.1" xmlns="http://www.w3.org/2000/svg"><path d="M994.361347 961.561105l-158.41448-158.642033a473.423021 473.423021 0 0 0 131.866686-327.827332C967.851478 213.140862 754.976095 0 493.404471 0 231.832848 0 18.957464 213.140862 18.957464 475.09174c0 261.950878 212.837458 475.09174 474.447007 475.091739a471.03372 471.03372 0 0 0 288.005641-98.454391l161.296813 161.524365a36.370478 36.370478 0 0 0 51.578571 0 36.598031 36.598031 0 0 0 0.075851-51.692348zM91.963898 475.09174c0-221.636156 180.069895-402.009455 401.440573-402.009455 221.332753 0 401.440573 180.373299 401.440573 402.009455 0 221.636156-180.145746 402.009455-401.440573 402.009454-221.370678 0-401.440573-180.373299-401.440573-402.009454z" p-id="916"></path><path d="M698.391368 455.105043h-372.806882C302.829234 455.105043 284.435405 472.095631 284.435405 493.030463s18.431754 37.92542 41.149081 37.925421h372.806882c22.755252 0 41.149081-16.990588 41.149081-37.925421s-18.431754-37.92542-41.149081-37.92542z" p-id="917"></path></svg>
