<svg viewBox="0 0 1024 1024" version="1.1" xmlns="http://www.w3.org/2000/svg"><path d="M986.82445095 954.53671273l-155.93925375-156.16325123a466.0257863 466.0257863 0 0 0 129.80626903-322.70502994C960.72879866 217.81053603 751.17959352 8 493.69502614 8 236.21045975 8 26.66125363 217.81053603 26.66125363 475.66843156c0 257.85789553 209.51187272 467.66843156 467.03377251 467.66843058a463.67381813 463.67381813 0 0 0 283.50555286-96.91604114l158.7765503 159.0005468a35.80218928 35.80218928 0 0 0 50.77265583 0 36.02618677 36.02618677 0 0 0 0.07466582-50.88465507zM98.52696209 475.66843156c0-218.17309106 177.25630289-395.72805727 395.16806405-395.72805726 217.87442873 0 395.16806405 177.5549662 395.16806405 395.72805726 0 218.17309106-177.33096872 395.72805727-395.16806405 395.72805628-217.91176116 0-395.16806405-177.5549662-395.16806405-395.72805628z" p-id="462"></path><path d="M661.50612195 437.32760905h-132.08357236V306.66268447c0-20.60772525-16.61311181-37.33283531-37.14617123-37.33283531a37.22083706 37.22083706 0 0 0-37.14617124 37.33283531v130.66492458H325.13727402a37.22083706 37.22083706 0 0 0-37.14617222 37.33283531c0 20.60772525 16.61311181 37.33283531 37.14617222 37.33283531h129.9929331V642.65820425c0 20.60772525 16.65044423 37.33283531 37.14617124 37.3328363 20.53305942 0 37.14617123-16.72511006 37.14617123-37.3328363v-130.66492458h132.08357236c20.53305942 0 37.14617123-16.72511006 37.14617124-37.33283531s-16.61311181-37.33283531-37.14617124-37.33283531z" p-id="463"></path></svg>
