<?xml version="1.0" encoding="utf-8"?>
<!-- Svg Vector Icons : http://www.sfont.cn -->
<!DOCTYPE svg PUBLIC "-//W3C//DTD SVG 1.1//EN" "http://www.w3.org/Graphics/SVG/1.1/DTD/svg11.dtd">
<svg version="1.1" xmlns="http://www.w3.org/2000/svg" xmlns:xlink="http://www.w3.org/1999/xlink" x="0px" y="0px" viewBox="0 0 1000 1000" enable-background="new 0 0 1000 1000" xml:space="preserve">
<metadata> Svg Vector Icons : http://www.sfont.cn </metadata>
<g><path d="M414.4,424.1c4.3,0,8.5-1.7,11.8-5c3.3-3.3,5-7.6,5-11.9L431,58.9c0-2.1-1.3-4.2-3.4-5.1c-2.1-0.9-4.6-0.3-6.1,1.2L303.7,172.2L145.9,15c-3-3-7.2-4.9-11.9-4.9c-4.6,0-8.8,1.9-11.9,4.9L15,121.7c-3.1,3-5,7.2-5,11.9c0,4.6,1.8,8.9,5,11.9l157.7,157.1L58.3,416.5c-1.6,1.5-2,3.9-1.2,6.1c0.8,2.2,2.9,3.6,5.1,3.6L414.4,424.1L414.4,424.1z M414.4,572.9c4.3,0,8.5,1.7,11.9,5c3.3,3.3,5,7.6,5,11.9L431.2,941c0,2.1-1.3,4.4-3.4,5.1c-2.2,0.9-4.6,0.3-6.2-1.2L303.8,827.6L146,985c-3,3-7.2,5-11.9,5s-8.8-1.9-11.9-5L15,878.2c-3.1-3-5-7.3-5-11.9c0-4.6,1.9-8.8,5-12l157.7-157.1l-114.5-114c-1.6-1.6-2-4-1.3-6.2c1-2,3-3.3,5.1-3.5L414.4,572.9L414.4,572.9z M585.7,424.1c-4.5,0-8.5-1.7-11.9-5c-3.3-3.3-5-7.6-5-11.9L569,58.9c0-2.1,1.4-4.2,3.5-5.1c2-0.9,4.6-0.3,6,1.2l117.7,117.2L854,15c3-3,7.2-4.9,11.9-4.9c4.7,0,8.6,1.9,11.9,4.9l107.4,106.8c2.9,3,4.8,7.2,4.8,11.9c0,4.6-1.8,8.9-5,11.9L827.3,302.7l114.4,113.9c1.7,1.5,2.1,3.9,1.3,6.1c-1,2.2-2.9,3.5-5.1,3.5L585.7,424.1L585.7,424.1z M585.5,572.9c-4.3,0-8.5,1.7-11.9,5c-3.3,3.3-5,7.6-5,11.9l0.2,351.3c0,2.1,1.4,4.4,3.5,5.1c2,1,4.6,0.3,6-1.2L696,827.6L853.8,985c3.2,3,7.3,5,11.9,5s8.7-1.9,11.9-5l107.2-106.8c2.9-3,5-7.3,5-11.9s-1.9-8.8-5-11.9l-157.7-157l114.6-113.9c1.7-1.7,2.1-4,1.4-6.2c-1.1-2-2.9-3.4-5.1-3.5L585.5,572.9L585.5,572.9z"/></g>
</svg>
