<?xml version="1.0" encoding="utf-8"?>
<!-- Svg Vector Icons : http://www.sfont.cn -->
<!DOCTYPE svg PUBLIC "-//W3C//DTD SVG 1.1//EN" "http://www.w3.org/Graphics/SVG/1.1/DTD/svg11.dtd">
<svg version="1.1" xmlns="http://www.w3.org/2000/svg" xmlns:xlink="http://www.w3.org/1999/xlink" x="0px" y="0px" viewBox="0 0 1000 1000" enable-background="new 0 0 1000 1000" xml:space="preserve">
<metadata> Svg Vector Icons : http://www.sfont.cn </metadata>
<g><path d="M26.8,12.2c-4.3,0-8.5,1.7-11.8,5c-3.3,3.3-5,7.6-5,11.9l0.2,348.3c0,2.1,1.3,4.2,3.4,5.1c2.1,0.9,4.6,0.3,6.1-1.2l117.7-117.2l157.9,157.2c3,3,7.2,4.9,11.9,4.9s8.8-1.9,11.9-4.9l107.2-106.8c3.1-3,5-7.2,5-11.9c0-4.6-1.8-8.9-5-11.9L268.5,133.7L382.9,19.8c1.6-1.5,2-3.9,1.2-6.1c-0.8-2.2-2.9-3.6-5.1-3.6L26.8,12.2L26.8,12.2z M26.9,989.9c-4.3,0.1-8.5-1.6-11.9-4.9c-3.3-3.3-5-7.6-5-11.9l0.1-351.3c0-2.2,1.3-4.3,3.4-5.1c2.2-0.9,4.6-0.3,6.2,1.1l117.7,117.3l157.9-157.3c3-3,7.2-4.9,11.9-4.9s8.8,1.9,11.9,4.9l107.2,106.8c3.1,3.1,5,7.3,5,11.9c0,4.6-1.9,8.9-5,12L268.6,865.6l114.5,114c1.6,1.6,2,4,1.3,6.2c-1,2-3,3.4-5.1,3.5L26.9,989.9L26.9,989.9z M973.2,12.2c4.4,0,8.5,1.7,11.9,5c3.3,3.3,5,7.6,5,11.9l-0.2,348.3c0,2.1-1.4,4.2-3.5,5.1c-2.1,0.9-4.6,0.3-6-1.2L862.6,264.1L704.7,421.3c-3.1,3-7.2,4.9-11.9,4.9c-4.6,0-8.7-1.9-11.9-4.9L573.6,314.6c-3-3-4.9-7.2-4.9-11.9c0-4.6,1.9-8.9,5-11.9l157.9-157.2L617.1,19.7c-1.6-1.5-2.1-3.9-1.2-6.1c0.9-2.2,2.9-3.5,5.1-3.5L973.2,12.2L973.2,12.2z M973.1,989.9c4.3,0.1,8.5-1.6,11.9-4.9c3.3-3.3,5-7.6,5-11.9l-0.1-351.3c0-2.2-1.4-4.3-3.5-5.1c-2.1-1-4.6-0.4-6,1.1L862.5,735.2L704.6,577.9c-3.1-3-7.2-4.9-11.9-4.9c-4.6,0-8.7,1.9-11.9,4.9L573.6,684.6c-3,3.1-5,7.3-5,11.9c0,4.6,1.9,8.9,5,11.9l157.9,157.1l-114.6,114c-1.6,1.6-2.1,4-1.3,6.2c1,2,2.9,3.4,5.1,3.5L973.1,989.9L973.1,989.9z"/></g>
</svg>
