<?xml version="1.0" encoding="utf-8"?>
<!-- Svg Vector Icons : http://www.sfont.cn -->
<!DOCTYPE svg PUBLIC "-//W3C//DTD SVG 1.1//EN" "http://www.w3.org/Graphics/SVG/1.1/DTD/svg11.dtd">
<svg version="1.1" xmlns="http://www.w3.org/2000/svg" xmlns:xlink="http://www.w3.org/1999/xlink" x="0px" y="0px" viewBox="0 0 1000 1000" enable-background="new 0 0 1000 1000" xml:space="preserve">
<metadata> Svg Vector Icons : http://www.sfont.cn </metadata>
<g><path d="M500,10C229.4,10,10,229.4,10,500c0,270.6,219.4,490,490,490s490-219.4,490-490C990,229.4,770.6,10,500,10z M795.1,363L456.1,709.4c-1.2,1.7-2.4,3.4-4,4.9c-13.3,13.5-34.8,13.5-48.1,0l-168.4-171c-13.3-13.5-13.3-35.4,0-48.9c13.3-13.5,34.8-13.5,48.1,0l143.9,146L747,314.1c13.3-13.5,34.8-13.5,48.1,0C808.4,327.6,808.4,349.5,795.1,363L795.1,363z"/></g>
</svg>