<?xml version="1.0" encoding="utf-8"?>
<!-- Svg Vector Icons : http://www.sfont.cn -->
<!DOCTYPE svg PUBLIC "-//W3C//DTD SVG 1.1//EN" "http://www.w3.org/Graphics/SVG/1.1/DTD/svg11.dtd">
<svg version="1.1" xmlns="http://www.w3.org/2000/svg" xmlns:xlink="http://www.w3.org/1999/xlink" x="0px" y="0px" viewBox="0 0 1000 1000" enable-background="new 0 0 1000 1000" xml:space="preserve">
<metadata> Svg Vector Icons : http://www.sfont.cn </metadata>
<g><path d="M969.8,779.6L598.2,115.8c-25.4-45.8-58.3-68.7-98.6-68.7c-40.3,0-73.2,22.9-98.6,68.7L30.3,779.6c-24.7,45.1-26.9,85.4-6.6,121c21.1,34.9,57.4,52.3,109,52.3h734.6c51.6,0,87.7-17.6,108.4-52.9S994.5,824.6,969.8,779.6L969.8,779.6z M465.2,290.2c0-9.4,3.5-17.6,10.4-24.5s15.1-10.4,24.5-10.4c9.4,0,17.6,3.5,24.5,10.4c6.9,6.9,10.4,15.1,10.4,24.5v313.9c0,9.4-3.5,17.6-10.4,24.5c-6.9,6.9-15.1,10.4-24.5,10.4c-9.4,0-17.6-3.5-24.5-10.4c-6.9-6.9-10.4-15.1-10.4-24.5V290.2L465.2,290.2z M500.1,848.2c-14.5,0-26.9-5.1-37.1-15.3c-10.2-10.2-15.3-22.5-15.3-37.1c0-14.5,5.1-26.9,15.3-37.1s22.5-15.3,37.1-15.3c14.5,0,26.9,5.1,37.1,15.3c10.2,10.2,15.3,22.5,15.3,37.1s-5.1,26.9-15.3,37.1C527,843.1,514.6,848.2,500.1,848.2z"/></g>
</svg>